<svg xmlns="http://www.w3.org/2000/svg"  viewBox="0 0 100 100" width="100px" height="100px"><path fill="#ee3e54" d="M13 27A2 2 0 1 0 13 31A2 2 0 1 0 13 27Z"/><path fill="#f1bc19" d="M77 12A1 1 0 1 0 77 14A1 1 0 1 0 77 12Z"/><path fill="#fce0a2" d="M50 13A37 37 0 1 0 50 87A37 37 0 1 0 50 13Z"/><path fill="#f1bc19" d="M83 11A4 4 0 1 0 83 19A4 4 0 1 0 83 11Z"/><path fill="#ee3e54" d="M87 22A2 2 0 1 0 87 26A2 2 0 1 0 87 22Z"/><path fill="#fbcd59" d="M81 74A2 2 0 1 0 81 78 2 2 0 1 0 81 74zM15 59A4 4 0 1 0 15 67 4 4 0 1 0 15 59z"/><path fill="#ee3e54" d="M25 85A2 2 0 1 0 25 89A2 2 0 1 0 25 85Z"/><path fill="#fff" d="M18.5 51A2.5 2.5 0 1 0 18.5 56A2.5 2.5 0 1 0 18.5 51Z"/><path fill="#f1bc19" d="M21 66A1 1 0 1 0 21 68A1 1 0 1 0 21 66Z"/><path fill="#fff" d="M80 33A1 1 0 1 0 80 35A1 1 0 1 0 80 33Z"/><path fill="#67ba8c" d="M35.304,71.3c-3.642,0-6.604-2.963-6.604-6.604V37.305c0-3.642,2.962-6.604,6.604-6.604h27.391 c3.642,0,6.604,2.963,6.604,6.604v27.391c0,3.642-2.963,6.604-6.604,6.604H35.304z"/><path fill="#472b29" d="M62.696,31.4c3.256,0,5.904,2.649,5.904,5.905v27.391c0,3.256-2.649,5.905-5.904,5.905H35.304 c-3.256,0-5.904-2.649-5.904-5.905V37.304c0-3.256,2.649-5.905,5.904-5.905H62.696 M62.696,30H35.304 C31.287,30,28,33.287,28,37.304v27.391C28,68.713,31.287,72,35.304,72h27.391C66.713,72,70,68.713,70,64.696V37.304 C70,33.287,66.713,30,62.696,30L62.696,30z"/><path fill="#472b29" d="M66.132,48.654c-0.276,0-0.5-0.224-0.5-0.5v-3.536c0-0.276,0.224-0.5,0.5-0.5s0.5,0.224,0.5,0.5 v3.536C66.632,48.431,66.408,48.654,66.132,48.654z"/><g><path fill="#472b29" d="M66.132,42.38c-0.276,0-0.5-0.224-0.5-0.5v-1.826c0-0.276,0.224-0.5,0.5-0.5s0.5,0.224,0.5,0.5 v1.826C66.632,42.156,66.408,42.38,66.132,42.38z"/></g><g><path fill="#3e7bf1" d="M49.703,54.772c0,0-11.129,10.692-15.504,15.708c0.436,0.103,0.889,0.162,1.356,0.162h27.382 c0.731,0,1.429-0.139,2.077-0.382C60.513,65.157,49.703,54.772,49.703,54.772z"/><path fill="#472b29" d="M62.938,70.893H35.555c-0.461,0-0.937-0.057-1.413-0.169l-0.404-0.095l0.272-0.313 c4.331-4.968,15.407-15.617,15.519-15.725l0.173-0.166l0.173,0.166c0.108,0.104,10.87,10.451,15.326,15.504l0.24,0.272l-0.34,0.127 C64.396,70.759,63.668,70.893,62.938,70.893z M34.673,70.32c0.298,0.048,0.593,0.072,0.882,0.072h27.382 c0.551,0,1.102-0.083,1.641-0.247c-4.256-4.765-13.494-13.695-14.875-15.026C48.305,56.467,38.855,65.602,34.673,70.32z"/></g><g><path fill="#fffef4" d="M46.622,54.083L63.17,70.631c1.978-0.077,3.71-1.119,4.733-2.674L50.326,50.379L46.622,54.083z"/><path fill="#472b29" d="M63.07,70.885L46.269,54.083l4.057-4.058l17.899,17.899l-0.112,0.17 c-1.099,1.667-2.942,2.708-4.933,2.786L63.07,70.885z M46.976,54.083l16.293,16.293c1.721-0.101,3.312-0.983,4.312-2.389 L50.326,50.732L46.976,54.083z"/></g><g><path fill="#bebacb" d="M51.985,52.49c0,0,10.858,11.303,15.824,15.605c0.674-0.964,1.073-2.134,1.073-3.397V37.316 c0-0.418-0.045-0.826-0.127-1.22C64.411,39.555,51.985,52.49,51.985,52.49z"/><path fill="#472b29" d="M67.854,68.465l-0.21-0.182c-4.917-4.26-15.731-15.507-15.841-15.62l-0.166-0.173l0.166-0.173 C51.929,52.188,64.292,39.331,68.6,35.9l0.317-0.253L69,36.045c0.087,0.422,0.132,0.85,0.132,1.271v27.383 c0,1.27-0.387,2.493-1.118,3.54L67.854,68.465z M52.331,52.49c1.369,1.42,10.78,11.154,15.427,15.229 c0.573-0.908,0.874-1.947,0.874-3.021V37.315c0-0.25-0.018-0.504-0.051-0.756C64.327,40.079,53.787,50.98,52.331,52.49z"/></g><g><path fill="#fde751" d="M35.269,70.628l33.599-33.599c-0.095-1.97-1.147-3.689-2.706-4.701L30.568,67.921 C31.579,69.48,33.299,70.533,35.269,70.628z"/><path fill="#472b29" d="M35.367,70.883l-0.111-0.005c-1.984-0.096-3.815-1.15-4.898-2.821l-0.11-0.17l0.143-0.143 l35.737-35.736l0.169,0.11c1.671,1.084,2.725,2.916,2.82,4.899l0.005,0.11L35.367,70.883z M30.89,67.952 c0.986,1.409,2.566,2.304,4.281,2.42l33.44-33.44c-0.116-1.714-1.011-3.294-2.419-4.281L30.89,67.952z"/></g><g><path fill="#fff" d="M39.825,40.375v2.398h3.418c-0.45,1.453-1.662,2.491-3.418,2.491c-2.09,0-3.784-1.694-3.784-3.784 c0-2.095,1.694-3.788,3.784-3.788c0.94,0,1.801,0.348,2.46,0.914l1.765-1.765c-1.114-1.016-2.594-1.636-4.225-1.636 c-3.467,0-6.275,2.812-6.275,6.275c0,3.463,2.808,6.275,6.275,6.275c5.491,0,6.431-4.925,5.914-7.371L39.825,40.375z"/><path fill="#472b29" d="M39.825,48.005c-3.598,0-6.525-2.927-6.525-6.524s2.927-6.525,6.525-6.525 c1.631,0,3.191,0.604,4.394,1.701l0.193,0.177l-2.113,2.113l-0.176-0.151c-0.642-0.55-1.458-0.853-2.298-0.853 c-1.948,0-3.534,1.587-3.534,3.538c0,1.948,1.585,3.533,3.534,3.533c1.423,0,2.545-0.737,3.063-1.991h-3.313v-2.897l6.367,0.009 l0.042,0.198c0.335,1.585,0.068,3.929-1.282,5.595C43.583,47.306,41.942,48.005,39.825,48.005z M39.825,35.455 c-3.322,0-6.025,2.703-6.025,6.025s2.703,6.024,6.025,6.024c1.959,0,3.47-0.637,4.488-1.894c1.191-1.47,1.468-3.518,1.219-4.978 l-5.457-0.009v1.897h3.508l-0.101,0.324c-0.518,1.67-1.885,2.667-3.657,2.667c-2.224,0-4.034-1.81-4.034-4.033 c0-2.227,1.81-4.038,4.034-4.038c0.882,0,1.741,0.292,2.443,0.827l1.417-1.416C42.603,35.95,41.243,35.455,39.825,35.455z"/></g><g><path fill="#ea4989" d="M62.424,23.511c-6.302,0-11.409,5.107-11.409,11.409c0,7.773,8.744,10.607,10.647,22.649 c0.125,0.775,0.134,1.31,0.762,1.31c0.628,0,0.637-0.535,0.762-1.31c1.903-12.042,10.647-14.877,10.647-22.649 C73.833,28.618,68.726,23.511,62.424,23.511z"/><path fill="#472b29" d="M62.424,59.379c-0.994,0-1.125-0.87-1.221-1.505l-0.034-0.226 c-0.981-6.207-3.814-9.916-6.313-13.188c-2.329-3.051-4.341-5.685-4.341-9.54c0-6.566,5.343-11.909,11.909-11.909 s11.909,5.343,11.909,11.909c0,3.855-2.012,6.489-4.341,9.539c-2.499,3.273-5.331,6.982-6.312,13.188l-0.035,0.227 C63.55,58.509,63.419,59.379,62.424,59.379z M62.424,24.011c-6.016,0-10.909,4.894-10.909,10.909c0,3.518,1.916,6.026,4.136,8.933 c2.571,3.367,5.485,7.184,6.506,13.639l0.036,0.234c0.037,0.245,0.087,0.581,0.151,0.648l0.168-0.006 c0.058-0.062,0.108-0.397,0.145-0.644l0.037-0.234c1.02-6.455,3.934-10.271,6.505-13.638c2.219-2.906,4.135-5.415,4.135-8.933 C73.333,28.904,68.439,24.011,62.424,24.011z"/></g><g><path fill="#fffef4" d="M66.417,34.92c0,2.206-1.787,3.993-3.993,3.993c-2.206,0-3.993-1.787-3.993-3.993 c0-2.206,1.787-3.993,3.993-3.993C64.63,30.927,66.417,32.714,66.417,34.92z"/><path fill="#472b29" d="M62.424,39.413c-2.478,0-4.493-2.016-4.493-4.493s2.016-4.493,4.493-4.493s4.493,2.016,4.493,4.493 S64.901,39.413,62.424,39.413z M62.424,31.427c-1.926,0-3.493,1.567-3.493,3.493s1.567,3.493,3.493,3.493s3.493-1.567,3.493-3.493 S64.35,31.427,62.424,31.427z"/></g><g><path fill="#472b29" d="M63.327,48.215c-0.079,0-0.158-0.019-0.232-0.058c-0.244-0.128-0.339-0.43-0.21-0.675 c1.426-2.721,4.126-6.231,5.279-7.73c0.258-0.337,0.435-0.565,0.493-0.652c0.839-1.241,1.282-2.691,1.282-4.194 c0-0.276,0.224-0.5,0.5-0.5s0.5,0.224,0.5,0.5c0,1.703-0.502,3.348-1.453,4.754c-0.063,0.093-0.252,0.34-0.53,0.702 c-1.137,1.479-3.8,4.941-5.187,7.586C63.681,48.117,63.507,48.215,63.327,48.215z"/></g><g><path fill="#472b29" d="M70.149,33.265c-0.22,0-0.421-0.146-0.481-0.367c-0.174-0.628-0.432-1.233-0.767-1.801 c-0.357-0.604-0.797-1.155-1.307-1.638c-0.2-0.189-0.209-0.506-0.02-0.707c0.19-0.199,0.507-0.21,0.707-0.02 c0.577,0.547,1.076,1.171,1.48,1.856c0.379,0.643,0.672,1.33,0.868,2.043c0.074,0.266-0.082,0.541-0.349,0.614 C70.238,33.259,70.193,33.265,70.149,33.265z"/></g><g><path fill="#472b29" d="M66.115,28.298c-0.078,0-0.156-0.018-0.229-0.056c-1.072-0.556-2.232-0.837-3.447-0.837 c-0.276,0-0.5-0.224-0.5-0.5s0.224-0.5,0.5-0.5c1.357,0,2.708,0.328,3.906,0.948c0.246,0.127,0.342,0.429,0.215,0.674 C66.471,28.199,66.296,28.298,66.115,28.298z"/></g></svg>