<svg xmlns="http://www.w3.org/2000/svg"  viewBox="0 0 100 100" width="100px" height="100px"><path fill="#ee3e54" d="M13,27c-1.105,0-2,0.895-2,2s0.895,2,2,2s2-0.895,2-2S14.105,27,13,27z"/><path fill="#f1bc19" d="M77,12c-0.552,0-1,0.448-1,1s0.448,1,1,1s1-0.448,1-1S77.552,12,77,12z"/><path fill="#fce0a2" d="M50,13c-20.435,0-37,16.565-37,37s16.565,37,37,37s37-16.565,37-37S70.435,13,50,13z"/><path fill="#f1bc19" d="M83,11c-2.209,0-4,1.791-4,4s1.791,4,4,4s4-1.791,4-4S85.209,11,83,11z"/><path fill="#ee3e54" d="M87,22c-1.105,0-2,0.895-2,2s0.895,2,2,2s2-0.895,2-2S88.105,22,87,22z"/><path fill="#fbcd59" d="M81,74c-1.105,0-2,0.895-2,2s0.895,2,2,2s2-0.895,2-2S82.105,74,81,74z M15,59c-2.209,0-4,1.791-4,4 c0,2.209,1.791,4,4,4s4-1.791,4-4C19,60.791,17.209,59,15,59z"/><path fill="#ee3e54" d="M25,85c-1.105,0-2,0.895-2,2s0.895,2,2,2s2-0.895,2-2S26.105,85,25,85z"/><path fill="#fff" d="M18.5,51c-1.381,0-2.5,1.119-2.5,2.5s1.119,2.5,2.5,2.5s2.5-1.119,2.5-2.5S19.881,51,18.5,51z"/><path fill="#f1bc19" d="M21,66c-0.552,0-1,0.448-1,1s0.448,1,1,1s1-0.448,1-1S21.552,66,21,66z"/><path fill="#fff" d="M80,33c-0.552,0-1,0.448-1,1s0.448,1,1,1s1-0.448,1-1S80.552,33,80,33z"/><path fill="#77cbd2" d="M35,72.3c-4.025,0-7.3-3.274-7.3-7.3V35c0-4.025,3.274-7.3,7.3-7.3h30c4.025,0,7.3,3.274,7.3,7.3v30 c0,4.025-3.274,7.3-7.3,7.3H35z"/><path fill="#472b29" d="M65,28.4c3.639,0,6.6,2.961,6.6,6.6v30c0,3.639-2.961,6.6-6.6,6.6H35c-3.639,0-6.6-2.961-6.6-6.6V35 c0-3.639,2.961-6.6,6.6-6.6H65 M65,27H35c-4.4,0-8,3.6-8,8v30c0,4.4,3.6,8,8,8h30c4.4,0,8-3.6,8-8V35C73,30.6,69.4,27,65,27L65,27z"/><circle cx="54.5" cy="60.5" r="3" fill="#685446"/><path fill="#472b29" d="M54.5,64c-1.93,0-3.5-1.57-3.5-3.5s1.57-3.5,3.5-3.5s3.5,1.57,3.5,3.5S56.43,64,54.5,64z M54.5,58 c-1.378,0-2.5,1.122-2.5,2.5s1.122,2.5,2.5,2.5s2.5-1.122,2.5-2.5S55.878,58,54.5,58z"/><path fill="#fff" d="M39.5,49c0-6.351,5.149-11.5,11.5-11.5S62.5,42.649,62.5,49S57.351,60.5,51,60.5s-11.5,0-14.5-6.5 C39.5,53.5,39.5,52.5,39.5,49z"/><path fill="#472b29" d="M51,61c-6.342,0-11.82,0-14.954-6.791c-0.065-0.142-0.061-0.306,0.012-0.443s0.206-0.234,0.36-0.259 C39,53.077,39,52.533,39,49c0-6.617,5.383-12,12-12s12,5.383,12,12S57.617,61,51,61z M37.234,54.364C40.135,60,44.952,60,51,60 c6.065,0,11-4.935,11-11s-4.935-11-11-11s-11,4.935-11,11C40,52.245,40,53.718,37.234,54.364z"/><circle cx="44.5" cy="60.5" r="3" fill="#685446"/><path fill="#472b29" d="M44.5,64c-1.93,0-3.5-1.57-3.5-3.5s1.57-3.5,3.5-3.5s3.5,1.57,3.5,3.5S46.43,64,44.5,64z M44.5,58 c-1.378,0-2.5,1.122-2.5,2.5s1.122,2.5,2.5,2.5s2.5-1.122,2.5-2.5S45.878,58,44.5,58z"/><path fill="#472b29" d="M52.5,55c-2.195,0-4.172-1.296-5.039-3.302c-0.109-0.253,0.007-0.548,0.261-0.657 c0.253-0.111,0.548,0.007,0.657,0.261C49.087,52.941,50.705,54,52.5,54s3.413-1.059,4.121-2.698 c0.109-0.253,0.403-0.371,0.657-0.261c0.253,0.109,0.37,0.404,0.261,0.657C56.672,53.704,54.695,55,52.5,55z"/><circle cx="56.5" cy="46.5" r="1.25" fill="#685446"/><path fill="#472b29" d="M56.5,45.5c0.551,0,1,0.449,1,1s-0.449,1-1,1s-1-0.449-1-1S55.949,45.5,56.5,45.5 M56.5,45 c-0.828,0-1.5,0.672-1.5,1.5s0.672,1.5,1.5,1.5s1.5-0.672,1.5-1.5S57.328,45,56.5,45L56.5,45z"/><circle cx="48.5" cy="46.5" r="1.25" fill="#685446"/><path fill="#472b29" d="M48.5,45.5c0.551,0,1,0.449,1,1s-0.449,1-1,1s-1-0.449-1-1S47.949,45.5,48.5,45.5 M48.5,45 c-0.828,0-1.5,0.672-1.5,1.5s0.672,1.5,1.5,1.5s1.5-0.672,1.5-1.5S49.328,45,48.5,45L48.5,45z"/><path fill="#472b29" d="M31.5,49c-0.276,0-0.5-0.224-0.5-0.5v-13c0-2.481,2.019-4.5,4.5-4.5h10c0.276,0,0.5,0.224,0.5,0.5 S45.776,32,45.5,32h-10c-1.93,0-3.5,1.57-3.5,3.5v13C32,48.776,31.776,49,31.5,49z"/><path fill="#472b29" d="M31.5,57c-0.276,0-0.5-0.224-0.5-0.5v-4.912c0-0.276,0.224-0.5,0.5-0.5s0.5,0.224,0.5,0.5V56.5 C32,56.776,31.776,57,31.5,57z"/><path fill="#472b29" d="M64.5,69h-29c-2.481,0-4.5-2.019-4.5-4.5v-5c0-0.276,0.224-0.5,0.5-0.5s0.5,0.224,0.5,0.5v5 c0,1.93,1.57,3.5,3.5,3.5h29c1.93,0,3.5-1.57,3.5-3.5v-29c0-1.93-1.57-3.5-3.5-3.5h-2c-0.276,0-0.5-0.224-0.5-0.5 s0.224-0.5,0.5-0.5h2c2.481,0,4.5,2.019,4.5,4.5v29C69,66.981,66.981,69,64.5,69z"/><path fill="#472b29" d="M59.5,32h-2c-0.276,0-0.5-0.224-0.5-0.5s0.224-0.5,0.5-0.5h2c0.276,0,0.5,0.224,0.5,0.5 S59.776,32,59.5,32z"/><path fill="#472b29" d="M54.5,32h-6c-0.276,0-0.5-0.224-0.5-0.5s0.224-0.5,0.5-0.5h6c0.276,0,0.5,0.224,0.5,0.5 S54.776,32,54.5,32z"/></svg>